# xmcd CD database file generated by OrangeCD 5.2
#
# Track frame offsets:
#	150
#	18837
#	33667
#	45352
#	60852
#	70932
#	81032
#	92945
#	104520
#	119082
#	132705
#	146255
#	161765
#	174670
#	190112
#	204037
#	216650
#	231977
#	245052
#	256075
#
# Disc length: 3560 seconds
#
# Revision: 1
# Processed by: cddbd v1.5.1PL0 Copyright (c) Steve Scherf et al.
# Submitted via: OrangeCD 5.2
#
DISCID=210de614
DTITLE=Sam Cooke - The Rhythm And The Blues
DYEAR=1995
DGENRE=R&B Male 
TTITLE0=Get Yourself Another Fool 
TTITLE1=Drifting Blues 
TTITLE2=Fool's Paradise 
TTITLE3=Smoke Rings 
TTITLE4=Baby Won't You Please Come Home 
TTITLE5=Please Don't Drive Me Away 
TTITLE6=Nothing Can Change This Love
TTITLE7=But Not For Me 
TTITLE8=Don't Get Around Much Anymore
TTITLE9=Trouble In Mind 
TTITLE10=Little Girl Blue 
TTITLE11=I Lost Everything
TTITLE12=Chains Of Love 
TTITLE13=Nobody Knows You When You're Down And Out 
TTITLE14=Since I Met You Baby 
TTITLE15=Cry Me A River 
TTITLE16=Trouble Blues 
TTITLE17=Little Red Rooster 
TTITLE18=Out In The Cold Again 
TTITLE19=One More Time 
EXTD=
EXTT0=
EXTT1=
EXTT2=
EXTT3=
EXTT4=
EXTT5=
EXTT6=
EXTT7=
EXTT8=
EXTT9=
EXTT10=
EXTT11=
EXTT12=
EXTT13=
EXTT14=
EXTT15=
EXTT16=
EXTT17=
EXTT18=
EXTT19=
PLAYORDER=
